<svg width="269" height="149" viewBox="0 0 269 149" fill="none" xmlns="http://www.w3.org/2000/svg">
<path d="M42.3252 10.3171C42.7767 9.30901 42.3256 8.12578 41.3175 7.67425L24.8901 0.316163C23.8821 -0.135366 22.6988 0.315796 22.2473 1.32386C21.7958 2.33193 22.2469 3.51516 23.255 3.96669L37.8571 10.5072L31.3166 25.1093C30.8651 26.1174 31.3162 27.3006 32.3243 27.7521C33.3324 28.2037 34.5156 27.7525 34.9671 26.7444L42.3252 10.3171ZM267.776 135.023C193.2 146.646 137.517 146.133 97.0363 138.489C56.5442 130.843 31.4165 116.095 17.6995 99.3847C-9.53357 66.2082 7.5492 24.2039 41.2125 11.3683L39.7874 7.63075C3.95078 21.2951 -14.6089 66.3297 14.6078 101.923C29.1156 119.597 55.2359 134.667 96.2941 142.419C137.364 150.175 193.534 150.642 268.392 138.976L267.776 135.023Z" fill="#FFE22A"/>
</svg>
