<svg width="449" height="755" viewBox="0 0 449 755" fill="none" xmlns="http://www.w3.org/2000/svg">
<path d="M448.022 18.4675C448.929 17.838 449.155 16.5919 448.525 15.6843L438.266 0.893719C437.637 -0.013902 436.391 -0.239346 435.483 0.390176C434.576 1.0197 434.35 2.2658 434.98 3.17342L444.099 16.3206L430.951 25.4394C430.044 26.0689 429.818 27.315 430.448 28.2226C431.077 29.1302 432.323 29.3557 433.231 28.7262L448.022 18.4675ZM203.783 750.767C91.176 720.065 32.9387 655.957 12.9095 578.02C-7.1632 499.913 11.0445 407.544 52.211 320.345C93.3631 233.177 157.341 151.433 228.414 94.6617C299.542 37.8467 377.441 6.29334 446.526 18.7922L447.238 14.8561C376.501 2.05846 297.437 34.4087 225.918 91.5363C154.344 148.708 89.9929 230.946 48.5939 318.637C7.20926 406.298 -11.3564 499.667 9.03543 579.016C29.4709 658.534 88.9362 723.6 202.73 754.626L203.783 750.767Z" fill="#FFE22A"/>
</svg>
