<svg width="315.99999999999994" height="320" xmlns="http://www.w3.org/2000/svg" fill="none">

 <g>
  <title>Layer 1</title>
  <path id="svg_1" fill="#FFE22A" d="m292.993,302.614l14.496,7.519l-14.496,-7.519zm-217.5991,-288.4407c0.648,-0.8945 0.4482,-2.145 -0.4464,-2.793l-14.577,-10.5598c-0.8945,-0.64801 -2.145,-0.44817 -2.793,0.44635c-0.648,0.89452 -0.4481,2.14498 0.4464,2.79299l12.9573,9.38656l-9.3865,12.9573c-0.648,0.8945 -0.4481,2.145 0.4464,2.793c0.8945,0.648 2.145,0.4482 2.793,-0.4464l10.5598,-14.577zm228.0021,283.0457c-82.997,26.304 -146.564,22.84 -193.256,2.81c-46.6828,-20.027 -76.7482,-56.72 -92.5642,-97.38c-15.82911,-40.693 -17.34549,-85.268 -6.9958,-120.865c10.3613,-35.6369 32.4405,-61.8438 63.5098,-66.8091l-0.6312,-3.9498c-33.1916,5.3044 -56.1245,33.2012 -66.71959,69.6421c-10.60676,36.4808 -9.02388,81.9578 7.10889,123.4318c16.1458,41.508 46.9047,79.096 94.7151,99.606c47.802,20.507 112.398,23.835 196.041,-2.673l-1.208,-3.813z"/>
 </g>
</svg>