<svg width="1660" height="956" viewBox="0 0 1660 956" fill="none" xmlns="http://www.w3.org/2000/svg">
<g opacity="0.3">
<circle cx="19.071" cy="73.4258" r="4.99998" transform="rotate(-45 19.071 73.4258)" fill="#696466"/>
<circle cx="33.2126" cy="59.2812" r="4.99998" transform="rotate(-45 33.2126 59.2812)" fill="#696466"/>
<circle cx="47.3547" cy="45.1426" r="4.99998" transform="rotate(-45 47.3547 45.1426)" fill="#696466"/>
<circle cx="61.4968" cy="30.998" r="4.99998" transform="rotate(-45 61.4968 30.998)" fill="#696466"/>
<circle cx="75.6394" cy="16.8594" r="4.99998" transform="rotate(-45 75.6394 16.8594)" fill="#696466"/>
<circle cx="33.2156" cy="87.5703" r="4.99998" transform="rotate(-45 33.2156 87.5703)" fill="#696466"/>
<circle cx="47.3572" cy="73.4258" r="4.99998" transform="rotate(-45 47.3572 73.4258)" fill="#696466"/>
<circle cx="61.4993" cy="59.2871" r="4.99998" transform="rotate(-45 61.4993 59.2871)" fill="#696466"/>
<circle cx="75.6413" cy="45.1426" r="4.99998" transform="rotate(-45 75.6413 45.1426)" fill="#696466"/>
<circle cx="89.7839" cy="31.0039" r="4.99998" transform="rotate(-45 89.7839 31.0039)" fill="#696466"/>
<circle cx="47.3542" cy="101.708" r="4.99998" transform="rotate(-45 47.3542 101.708)" fill="#696466"/>
<circle cx="61.4968" cy="87.5693" r="4.99998" transform="rotate(-45 61.4968 87.5693)" fill="#696466"/>
<circle cx="75.6389" cy="73.4238" r="4.99998" transform="rotate(-45 75.6389 73.4238)" fill="#696466"/>
<circle cx="89.781" cy="59.2793" r="4.99998" transform="rotate(-45 89.781 59.2793)" fill="#696466"/>
<circle cx="103.924" cy="45.1406" r="4.99998" transform="rotate(-45 103.924 45.1406)" fill="#696466"/>
<circle cx="61.4958" cy="115.848" r="4.99998" transform="rotate(-45 61.4958 115.848)" fill="#696466"/>
<circle cx="75.6374" cy="101.703" r="4.99998" transform="rotate(-45 75.6374 101.703)" fill="#696466"/>
<circle cx="89.7795" cy="87.5645" r="4.99998" transform="rotate(-45 89.7795 87.5645)" fill="#696466"/>
<circle cx="103.922" cy="73.4199" r="4.99998" transform="rotate(-45 103.922 73.4199)" fill="#696466"/>
<circle cx="118.064" cy="59.2812" r="4.99998" transform="rotate(-45 118.064 59.2812)" fill="#696466"/>
<circle cx="75.6389" cy="129.993" r="4.99998" transform="rotate(-45 75.6389 129.993)" fill="#696466"/>
<circle cx="89.7815" cy="115.854" r="4.99998" transform="rotate(-45 89.7815 115.854)" fill="#696466"/>
<circle cx="103.924" cy="101.709" r="4.99998" transform="rotate(-45 103.924 101.709)" fill="#696466"/>
<circle cx="118.066" cy="87.5645" r="4.99998" transform="rotate(-45 118.066 87.5645)" fill="#696466"/>
<circle cx="132.208" cy="73.4258" r="4.99998" transform="rotate(-45 132.208 73.4258)" fill="#696466"/>
</g>
<g opacity="0.3">
<circle cx="4.32872" cy="554.026" r="3.33329" transform="rotate(-21.6747 4.32872 554.026)" fill="white"/>
<circle cx="16.7198" cy="549.101" r="3.33329" transform="rotate(-21.6747 16.7198 549.101)" fill="white"/>
<circle cx="29.1095" cy="544.179" r="3.33329" transform="rotate(-21.6747 29.1095 544.179)" fill="white"/>
<circle cx="41.5001" cy="539.252" r="3.33329" transform="rotate(-21.6747 41.5001 539.252)" fill="white"/>
<circle cx="53.8902" cy="534.33" r="3.33329" transform="rotate(-21.6747 53.8902 534.33)" fill="white"/>
<circle cx="9.25401" cy="566.417" r="3.33329" transform="rotate(-21.6747 9.25401 566.417)" fill="white"/>
<circle cx="21.6451" cy="561.492" r="3.33329" transform="rotate(-21.6747 21.6451 561.492)" fill="white"/>
<circle cx="34.0348" cy="556.571" r="3.33329" transform="rotate(-21.6747 34.0348 556.571)" fill="white"/>
<circle cx="46.4254" cy="551.644" r="3.33329" transform="rotate(-21.6747 46.4254 551.644)" fill="white"/>
<circle cx="58.8155" cy="546.722" r="3.33329" transform="rotate(-21.6747 58.8155 546.722)" fill="white"/>
<circle cx="14.1778" cy="578.805" r="3.33329" transform="rotate(-21.6747 14.1778 578.805)" fill="white"/>
<circle cx="26.568" cy="573.883" r="3.33329" transform="rotate(-21.6747 26.568 573.883)" fill="white"/>
<circle cx="38.9591" cy="568.956" r="3.33329" transform="rotate(-21.6747 38.9591 568.956)" fill="white"/>
<circle cx="51.3497" cy="564.032" r="3.33329" transform="rotate(-21.6747 51.3497 564.032)" fill="white"/>
<circle cx="63.7399" cy="559.11" r="3.33329" transform="rotate(-21.6747 63.7399 559.11)" fill="white"/>
<circle cx="19.1022" cy="591.196" r="3.33329" transform="rotate(-21.6747 19.1022 591.196)" fill="white"/>
<circle cx="31.4933" cy="586.271" r="3.33329" transform="rotate(-21.6747 31.4933 586.271)" fill="white"/>
<circle cx="43.8829" cy="581.349" r="3.33329" transform="rotate(-21.6747 43.8829 581.349)" fill="white"/>
<circle cx="56.2735" cy="576.422" r="3.33329" transform="rotate(-21.6747 56.2735 576.422)" fill="white"/>
<circle cx="68.6637" cy="571.5" r="3.33329" transform="rotate(-21.6747 68.6637 571.5)" fill="white"/>
<circle cx="24.0265" cy="603.587" r="3.33329" transform="rotate(-21.6747 24.0265 603.587)" fill="white"/>
<circle cx="36.4166" cy="598.665" r="3.33329" transform="rotate(-21.6747 36.4166 598.665)" fill="white"/>
<circle cx="48.8077" cy="593.739" r="3.33329" transform="rotate(-21.6747 48.8077 593.739)" fill="white"/>
<circle cx="61.1983" cy="588.814" r="3.33329" transform="rotate(-21.6747 61.1983 588.814)" fill="white"/>
<circle cx="73.5885" cy="583.892" r="3.33329" transform="rotate(-21.6747 73.5885 583.892)" fill="white"/>
<circle cx="34.3282" cy="556.026" r="3.33329" transform="rotate(-21.6747 34.3282 556.026)" fill="#925EB0"/>
<circle cx="46.7193" cy="551.101" r="3.33329" transform="rotate(-21.6747 46.7193 551.101)" fill="#925EB0"/>
<circle cx="59.109" cy="546.179" r="3.33329" transform="rotate(-21.6747 59.109 546.179)" fill="#925EB0"/>
<circle cx="71.4996" cy="541.252" r="3.33329" transform="rotate(-21.6747 71.4996 541.252)" fill="#925EB0"/>
<circle cx="83.8898" cy="536.33" r="3.33329" transform="rotate(-21.6747 83.8898 536.33)" fill="#925EB0"/>
<circle cx="39.2535" cy="568.417" r="3.33329" transform="rotate(-21.6747 39.2535 568.417)" fill="#925EB0"/>
<circle cx="51.6446" cy="563.492" r="3.33329" transform="rotate(-21.6747 51.6446 563.492)" fill="#925EB0"/>
<circle cx="64.0343" cy="558.571" r="3.33329" transform="rotate(-21.6747 64.0343 558.571)" fill="#925EB0"/>
<circle cx="76.4249" cy="553.644" r="3.33329" transform="rotate(-21.6747 76.4249 553.644)" fill="#925EB0"/>
<circle cx="88.815" cy="548.722" r="3.33329" transform="rotate(-21.6747 88.815 548.722)" fill="#925EB0"/>
<circle cx="44.1774" cy="580.805" r="3.33329" transform="rotate(-21.6747 44.1774 580.805)" fill="#925EB0"/>
<circle cx="56.5675" cy="575.883" r="3.33329" transform="rotate(-21.6747 56.5675 575.883)" fill="#925EB0"/>
<circle cx="68.9586" cy="570.956" r="3.33329" transform="rotate(-21.6747 68.9586 570.956)" fill="#925EB0"/>
<circle cx="81.3492" cy="566.032" r="3.33329" transform="rotate(-21.6747 81.3492 566.032)" fill="#925EB0"/>
<circle cx="93.7394" cy="561.11" r="3.33329" transform="rotate(-21.6747 93.7394 561.11)" fill="#925EB0"/>
<circle cx="49.1017" cy="593.196" r="3.33329" transform="rotate(-21.6747 49.1017 593.196)" fill="#925EB0"/>
<circle cx="61.4928" cy="588.271" r="3.33329" transform="rotate(-21.6747 61.4928 588.271)" fill="#925EB0"/>
<circle cx="73.8824" cy="583.349" r="3.33329" transform="rotate(-21.6747 73.8824 583.349)" fill="#925EB0"/>
<circle cx="86.2731" cy="578.422" r="3.33329" transform="rotate(-21.6747 86.2731 578.422)" fill="#925EB0"/>
<circle cx="98.6632" cy="573.5" r="3.33329" transform="rotate(-21.6747 98.6632 573.5)" fill="#925EB0"/>
<circle cx="54.026" cy="605.587" r="3.33329" transform="rotate(-21.6747 54.026 605.587)" fill="#925EB0"/>
<circle cx="66.4161" cy="600.665" r="3.33329" transform="rotate(-21.6747 66.4161 600.665)" fill="#925EB0"/>
<circle cx="78.8072" cy="595.739" r="3.33329" transform="rotate(-21.6747 78.8072 595.739)" fill="#925EB0"/>
<circle cx="91.1979" cy="590.814" r="3.33329" transform="rotate(-21.6747 91.1979 590.814)" fill="#925EB0"/>
<circle cx="103.588" cy="585.892" r="3.33329" transform="rotate(-21.6747 103.588 585.892)" fill="#925EB0"/>
</g>
<path opacity="0.1" d="M213 332.41C213 373.279 179.869 406.41 139 406.41C98.1309 406.41 65 373.279 65 332.41C65 291.541 126.5 184.41 139 258.41C151.5 332.41 213 291.541 213 332.41Z" fill="#42428B" fill-opacity="0.5"/>
<circle opacity="0.1" cx="139.5" cy="886.499" r="69.5" fill="#925EB0" fill-opacity="0.5"/>
<path opacity="0.1" d="M1659.06 108.038C1659.06 148.907 1605.87 175.538 1565 175.538C1524.13 175.538 1591.56 125.539 1491 101.538C1491 60.6694 1587.56 -48.9614 1600.06 25.0386C1612.56 99.0386 1659.06 67.1688 1659.06 108.038Z" fill="#42428B" fill-opacity="0.5"/>
<g opacity="0.3">
<circle opacity="0.5" cx="1517.5" cy="462.5" r="69.5" fill="#925EB0" fill-opacity="0.3"/>
<g opacity="0.7">
<circle cx="1451.13" cy="510.169" r="3.33329" transform="rotate(-43.9906 1451.13 510.169)" fill="#925EB0"/>
<circle cx="1460.72" cy="500.908" r="3.33329" transform="rotate(-43.9906 1460.72 500.908)" fill="#925EB0"/>
<circle cx="1470.31" cy="491.65" r="3.33329" transform="rotate(-43.9906 1470.31 491.65)" fill="#925EB0"/>
<circle cx="1479.91" cy="482.388" r="3.33329" transform="rotate(-43.9906 1479.91 482.388)" fill="#925EB0"/>
<circle cx="1489.5" cy="473.13" r="3.33329" transform="rotate(-43.9906 1489.5 473.13)" fill="#925EB0"/>
<circle cx="1460.39" cy="519.763" r="3.33329" transform="rotate(-43.9906 1460.39 519.763)" fill="#925EB0"/>
<circle cx="1469.98" cy="510.502" r="3.33329" transform="rotate(-43.9906 1469.98 510.502)" fill="#925EB0"/>
<circle cx="1479.57" cy="501.244" r="3.33329" transform="rotate(-43.9906 1479.57 501.244)" fill="#925EB0"/>
<circle cx="1489.17" cy="491.981" r="3.33329" transform="rotate(-43.9906 1489.17 491.981)" fill="#925EB0"/>
<circle cx="1498.76" cy="482.724" r="3.33329" transform="rotate(-43.9906 1498.76 482.724)" fill="#925EB0"/>
<circle cx="1469.65" cy="529.353" r="3.33329" transform="rotate(-43.9906 1469.65 529.353)" fill="#925EB0"/>
<circle cx="1479.24" cy="520.095" r="3.33329" transform="rotate(-43.9906 1479.24 520.095)" fill="#925EB0"/>
<circle cx="1488.83" cy="510.832" r="3.33329" transform="rotate(-43.9906 1488.83 510.832)" fill="#925EB0"/>
<circle cx="1498.43" cy="501.571" r="3.33329" transform="rotate(-43.9906 1498.43 501.571)" fill="#925EB0"/>
<circle cx="1508.02" cy="492.314" r="3.33329" transform="rotate(-43.9906 1508.02 492.314)" fill="#925EB0"/>
<circle cx="1478.91" cy="538.945" r="3.33329" transform="rotate(-43.9906 1478.91 538.945)" fill="#925EB0"/>
<circle cx="1488.5" cy="529.685" r="3.33329" transform="rotate(-43.9906 1488.5 529.685)" fill="#925EB0"/>
<circle cx="1498.09" cy="520.427" r="3.33329" transform="rotate(-43.9906 1498.09 520.427)" fill="#925EB0"/>
<circle cx="1507.69" cy="511.164" r="3.33329" transform="rotate(-43.9906 1507.69 511.164)" fill="#925EB0"/>
<circle cx="1517.28" cy="501.906" r="3.33329" transform="rotate(-43.9906 1517.28 501.906)" fill="#925EB0"/>
<circle cx="1488.17" cy="548.539" r="3.33329" transform="rotate(-43.9906 1488.17 548.539)" fill="#925EB0"/>
<circle cx="1497.76" cy="539.281" r="3.33329" transform="rotate(-43.9906 1497.76 539.281)" fill="#925EB0"/>
<circle cx="1507.35" cy="530.019" r="3.33329" transform="rotate(-43.9906 1507.35 530.019)" fill="#925EB0"/>
<circle cx="1516.95" cy="520.758" r="3.33329" transform="rotate(-43.9906 1516.95 520.758)" fill="#925EB0"/>
<circle cx="1526.54" cy="511.5" r="3.33329" transform="rotate(-43.9906 1526.54 511.5)" fill="#925EB0"/>
</g>
</g>
<g opacity="0.1">
<rect x="1549.71" y="921.133" width="100" height="100" rx="10" transform="rotate(-135 1549.71 921.133)" fill="#42428B" fill-opacity="0.5"/>
<rect x="1549.71" y="856.422" width="100" height="100" rx="10" transform="rotate(-135 1549.71 856.422)" fill="#925EB0" fill-opacity="0.4"/>
</g>
</svg>
