<svg width="46" height="85" viewBox="0 0 46 85" fill="none" xmlns="http://www.w3.org/2000/svg">
<circle cx="3.42641" cy="4.71338" r="3.33331" transform="rotate(-45 3.42641 4.71338)" fill="#C6BCB8"/>
<circle cx="3.42788" cy="23.5713" r="3.33331" transform="rotate(-45 3.42788 23.5713)" fill="#C6BCB8"/>
<circle cx="12.8561" cy="14.1428" r="3.33331" transform="rotate(-45 12.8561 14.1428)" fill="#C6BCB8"/>
<circle cx="3.42592" cy="42.4258" r="3.33331" transform="rotate(-45 3.42592 42.4258)" fill="#C6BCB8"/>
<circle cx="12.8537" cy="32.9978" r="3.33331" transform="rotate(-45 12.8537 32.9978)" fill="#C6BCB8"/>
<circle cx="22.2824" cy="23.5693" r="3.33331" transform="rotate(-45 22.2824 23.5693)" fill="#C6BCB8"/>
<circle cx="3.42495" cy="61.2808" r="3.33331" transform="rotate(-45 3.42495 61.2808)" fill="#C6BCB8"/>
<circle cx="12.8527" cy="51.8528" r="3.33331" transform="rotate(-45 12.8527 51.8528)" fill="#C6BCB8"/>
<circle cx="22.2809" cy="42.4248" r="3.33331" transform="rotate(-45 22.2809 42.4248)" fill="#C6BCB8"/>
<circle cx="31.7091" cy="32.9963" r="3.33331" transform="rotate(-45 31.7091 32.9963)" fill="#C6BCB8"/>
<circle cx="3.42592" cy="80.1377" r="3.33331" transform="rotate(-45 3.42592 80.1377)" fill="#C6BCB8"/>
<circle cx="12.8541" cy="70.7102" r="3.33331" transform="rotate(-45 12.8541 70.7102)" fill="#C6BCB8"/>
<circle cx="22.2824" cy="61.2822" r="3.33331" transform="rotate(-45 22.2824 61.2822)" fill="#C6BCB8"/>
<circle cx="31.7101" cy="51.8542" r="3.33331" transform="rotate(-45 31.7101 51.8542)" fill="#C6BCB8"/>
<circle cx="41.1388" cy="42.4258" r="3.33331" transform="rotate(-45 41.1388 42.4258)" fill="#C6BCB8"/>
</svg>
