<svg width="593" height="896" viewBox="0 0 593 896" fill="none" xmlns="http://www.w3.org/2000/svg">
<rect opacity="0.9" width="550" height="896" fill="#925EB0"/>
<g opacity="0.6">
<path d="M171.12 711.06C171.12 749.201 140.201 780.12 102.06 780.12C63.9193 780.12 33 749.201 33 711.06C33 672.919 63.9193 642 102.06 642C140.201 642 171.12 672.919 171.12 711.06Z" fill="white"/>
<circle cx="134.777" cy="721.175" r="3.83667" fill="#C6BCB8"/>
<circle cx="150.123" cy="721.175" r="3.83667" fill="#C6BCB8"/>
<circle cx="165.47" cy="721.175" r="3.83667" fill="#C6BCB8"/>
<circle cx="180.817" cy="721.175" r="3.83667" fill="#C6BCB8"/>
<circle cx="196.163" cy="721.175" r="3.83667" fill="#C6BCB8"/>
<circle cx="134.776" cy="736.521" r="3.83667" fill="#C6BCB8"/>
<circle cx="150.123" cy="736.522" r="3.83667" fill="#C6BCB8"/>
<circle cx="165.469" cy="736.522" r="3.83667" fill="#C6BCB8"/>
<circle cx="180.816" cy="736.522" r="3.83667" fill="#C6BCB8"/>
<circle cx="196.163" cy="736.522" r="3.83667" fill="#C6BCB8"/>
<circle cx="134.776" cy="751.868" r="3.83667" fill="#C6BCB8"/>
<circle cx="150.123" cy="751.868" r="3.83667" fill="#C6BCB8"/>
<circle cx="165.469" cy="751.868" r="3.83667" fill="#C6BCB8"/>
<circle cx="180.816" cy="751.868" r="3.83667" fill="#C6BCB8"/>
<circle cx="196.163" cy="751.868" r="3.83667" fill="#C6BCB8"/>
<circle cx="134.776" cy="767.215" r="3.83667" fill="#C6BCB8"/>
<circle cx="150.123" cy="767.215" r="3.83667" fill="#C6BCB8"/>
<circle cx="165.469" cy="767.215" r="3.83667" fill="#C6BCB8"/>
<circle cx="180.816" cy="767.215" r="3.83667" fill="#C6BCB8"/>
<circle cx="196.163" cy="767.215" r="3.83667" fill="#C6BCB8"/>
<circle cx="134.776" cy="782.562" r="3.83667" fill="#C6BCB8"/>
<circle cx="150.123" cy="782.562" r="3.83667" fill="#C6BCB8"/>
<circle cx="165.469" cy="782.562" r="3.83667" fill="#C6BCB8"/>
<circle cx="180.816" cy="782.562" r="3.83667" fill="#C6BCB8"/>
<circle cx="196.163" cy="782.562" r="3.83667" fill="#C6BCB8"/>
</g>
<g opacity="0.6">
<path d="M549.908 363.954C549.908 386.572 531.572 404.908 508.954 404.908C486.336 404.908 468 386.572 468 363.954C468 341.336 486.336 323 508.954 323C531.572 323 549.908 341.336 549.908 363.954Z" fill="white"/>
<circle cx="523.112" cy="382.956" r="2.36623" transform="rotate(-45 523.112 382.956)" fill="#C6BCB8"/>
<circle cx="529.805" cy="376.263" r="2.36623" transform="rotate(-45 529.805 376.263)" fill="#C6BCB8"/>
<circle cx="536.498" cy="369.571" r="2.36623" transform="rotate(-45 536.498 369.571)" fill="#C6BCB8"/>
<circle cx="543.19" cy="362.878" r="2.36623" transform="rotate(-45 543.19 362.878)" fill="#C6BCB8"/>
<circle cx="549.883" cy="356.186" r="2.36623" transform="rotate(-45 549.883 356.186)" fill="#C6BCB8"/>
<circle cx="529.805" cy="389.649" r="2.36623" transform="rotate(-45 529.805 389.649)" fill="#C6BCB8"/>
<circle cx="536.498" cy="382.957" r="2.36623" transform="rotate(-45 536.498 382.957)" fill="#C6BCB8"/>
<circle cx="543.191" cy="376.264" r="2.36623" transform="rotate(-45 543.191 376.264)" fill="#C6BCB8"/>
<circle cx="549.883" cy="369.571" r="2.36623" transform="rotate(-45 549.883 369.571)" fill="#C6BCB8"/>
<circle cx="556.576" cy="362.879" r="2.36623" transform="rotate(-45 556.576 362.879)" fill="#C6BCB8"/>
<circle cx="536.498" cy="396.342" r="2.36623" transform="rotate(-45 536.498 396.342)" fill="#C6BCB8"/>
<circle cx="543.191" cy="389.649" r="2.36623" transform="rotate(-45 543.191 389.649)" fill="#C6BCB8"/>
<circle cx="549.883" cy="382.956" r="2.36623" transform="rotate(-45 549.883 382.956)" fill="#C6BCB8"/>
<circle cx="556.576" cy="376.264" r="2.36623" transform="rotate(-45 556.576 376.264)" fill="#C6BCB8"/>
<circle cx="563.268" cy="369.571" r="2.36623" transform="rotate(-45 563.268 369.571)" fill="#C6BCB8"/>
<circle cx="543.191" cy="403.035" r="2.36623" transform="rotate(-45 543.191 403.035)" fill="#C6BCB8"/>
<circle cx="549.883" cy="396.342" r="2.36623" transform="rotate(-45 549.883 396.342)" fill="#C6BCB8"/>
<circle cx="556.576" cy="389.649" r="2.36623" transform="rotate(-45 556.576 389.649)" fill="#C6BCB8"/>
<circle cx="563.268" cy="382.956" r="2.36623" transform="rotate(-45 563.268 382.956)" fill="#C6BCB8"/>
<circle cx="569.961" cy="376.264" r="2.36623" transform="rotate(-45 569.961 376.264)" fill="#C6BCB8"/>
<circle cx="549.883" cy="409.727" r="2.36623" transform="rotate(-45 549.883 409.727)" fill="#C6BCB8"/>
<circle cx="556.576" cy="403.034" r="2.36623" transform="rotate(-45 556.576 403.034)" fill="#C6BCB8"/>
<circle cx="563.269" cy="396.342" r="2.36623" transform="rotate(-45 563.269 396.342)" fill="#C6BCB8"/>
<circle cx="569.961" cy="389.649" r="2.36623" transform="rotate(-45 569.961 389.649)" fill="#C6BCB8"/>
<circle cx="576.654" cy="382.956" r="2.36623" transform="rotate(-45 576.654 382.956)" fill="#C6BCB8"/>
</g>
</svg>
