<svg width="9" height="12" viewBox="0 0 9 12" fill="none" xmlns="http://www.w3.org/2000/svg">
<path d="M8.30141 6.98438C8.4398 7.1183 8.47105 7.27232 8.39516 7.44643C8.31927 7.625 8.18757 7.71429 8.00007 7.71429H5.44203L6.78802 10.9018C6.83266 11.0134 6.83266 11.1228 6.78802 11.2299C6.74337 11.3371 6.66748 11.4152 6.56034 11.4643L5.37507 11.9665C5.26346 12.0112 5.15409 12.0112 5.04694 11.9665C4.9398 11.9219 4.86168 11.846 4.81257 11.7388L3.53355 8.71205L1.44427 10.8013C1.35944 10.8862 1.259 10.9286 1.14293 10.9286C1.08936 10.9286 1.03578 10.9174 0.982213 10.8951C0.803641 10.8192 0.714355 10.6875 0.714355 10.5V0.428571C0.714355 0.241071 0.803641 0.109375 0.982213 0.0334821C1.03578 0.0111607 1.08936 0 1.14293 0C1.26346 0 1.36391 0.0424107 1.44427 0.127232L8.30141 6.98438Z" fill="#696466"/>
</svg>
