<svg width="71" height="142" viewBox="0 0 71 142" fill="none" xmlns="http://www.w3.org/2000/svg">
<circle cx="7.85666" cy="70.7109" r="5.55515" transform="rotate(-45 7.85666 70.7109)" fill="#925EB0" fill-opacity="0.8"/>
<circle cx="23.5696" cy="55.0012" r="5.55515" transform="rotate(-45 23.5696 55.0012)" fill="#925EB0" fill-opacity="0.8"/>
<circle cx="39.2815" cy="39.2876" r="5.55515" transform="rotate(-45 39.2815 39.2876)" fill="#925EB0" fill-opacity="0.8"/>
<circle cx="54.9939" cy="23.5784" r="5.55515" transform="rotate(-45 54.9939 23.5784)" fill="#925EB0" fill-opacity="0.8"/>
<circle cx="70.7063" cy="7.86035" r="5.55515" transform="rotate(-45 70.7063 7.86035)" fill="#925EB0" fill-opacity="0.8"/>
<circle cx="23.5715" cy="86.4219" r="5.55515" transform="rotate(-45 23.5715 86.4219)" fill="#925EB0" fill-opacity="0.8"/>
<circle cx="39.2844" cy="70.7109" r="5.55515" transform="rotate(-45 39.2844 70.7109)" fill="#925EB0" fill-opacity="0.8"/>
<circle cx="54.9963" cy="54.9995" r="5.55515" transform="rotate(-45 54.9963 54.9995)" fill="#925EB0" fill-opacity="0.8"/>
<circle cx="70.7092" cy="39.2903" r="5.55515" transform="rotate(-45 70.7092 39.2903)" fill="#925EB0" fill-opacity="0.8"/>
<circle cx="39.2805" cy="102.133" r="5.55515" transform="rotate(-45 39.2805 102.133)" fill="#925EB0" fill-opacity="0.8"/>
<circle cx="54.9924" cy="86.4272" r="5.55515" transform="rotate(-45 54.9924 86.4272)" fill="#925EB0" fill-opacity="0.8"/>
<circle cx="70.7058" cy="70.7114" r="5.55515" transform="rotate(-45 70.7058 70.7114)" fill="#925EB0" fill-opacity="0.8"/>
<circle cx="54.9909" cy="117.836" r="5.55515" transform="rotate(-45 54.9909 117.836)" fill="#925EB0" fill-opacity="0.8"/>
<circle cx="70.7038" cy="102.125" r="5.55515" transform="rotate(-45 70.7038 102.125)" fill="#925EB0" fill-opacity="0.8"/>
<circle cx="70.7053" cy="133.557" r="5.55515" transform="rotate(-45 70.7053 133.557)" fill="#925EB0" fill-opacity="0.8"/>
</svg>
